<?xml version="1.0" encoding="UTF-8"?>
<svg width="242px" height="16px" viewBox="0 0 242 16" version="1.1" xmlns="http://www.w3.org/2000/svg" xmlns:xlink="http://www.w3.org/1999/xlink" preserveAspectRatio="none">
    <!-- Generator: Sketch 60.1 (88133) - https://sketch.com -->
    <title>Fill 1</title>
    <desc>Created with Sketch.</desc>
    <g id="UI-Kit" stroke="none" stroke-width="1" fill="none" fill-rule="evenodd">
        <g id="UI-KIT" transform="translate(-883.000000, -465.000000)" fill="#000000">
            <g id="Sticky-Nav" transform="translate(143.000000, 144.000000)">
                <g id="Group-13" transform="translate(723.346909, 62.406372)">
                    <path d="M241.233181,257.555992 C240.343181,257.683992 239.503181,257.802992 239.153181,257.826992 C230.216181,258.387992 221.057181,258.511992 212.199181,258.629992 L206.794181,258.705992 C204.575181,258.741992 202.355181,258.769992 200.135181,258.798992 L195.848181,258.856992 C193.259181,258.893992 191.381181,258.916992 189.946181,258.933992 C185.255181,258.991992 185.255181,258.991992 180.816181,259.234992 C179.265181,259.319992 177.167181,259.435992 174.122181,259.593992 C165.777181,260.028992 157.309181,260.687992 149.120181,261.326992 C137.344181,262.242992 125.169181,263.190992 113.207181,263.480992 C110.399181,263.551992 105.479181,263.284992 99.7821815,262.980992 C88.2921815,262.367992 75.2681815,261.668992 70.1781815,263.123992 C67.1671815,263.984992 66.2081815,265.531992 65.7531815,266.998992 C64.0081815,266.911992 32.5131815,265.390992 20.5251815,268.592992 C20.5231815,268.591992 20.5211815,268.589992 20.5191815,268.587992 C19.4851815,267.990992 18.1601815,268.342992 17.5621815,269.377992 C17.4461815,269.577992 17.3661815,269.788992 17.3201815,270.001992 C16.7781815,270.628992 16.6231815,271.538992 16.9971815,272.335992 C17.5041815,273.418992 18.7911815,273.885992 19.8761815,273.378992 C20.0041815,273.317992 20.1431815,273.258992 20.2891815,273.200992 C23.5801815,274.338992 28.4371815,274.732992 34.1531815,274.732992 C39.2571815,274.732992 45.0471815,274.418992 51.0121815,274.041992 C53.5841815,273.879992 55.8031815,273.740992 57.4861815,273.683992 C58.5851815,273.629992 64.2191815,274.315992 66.0691815,274.534992 C67.7571815,274.732992 67.7551815,274.732992 68.1761815,274.613992 C68.4321815,274.540992 69.1851815,274.122992 70.0691815,273.534992 C72.0301815,274.526992 74.7941815,274.368992 76.5411815,274.267992 C76.8621815,274.250992 77.1291815,274.243992 77.3151815,274.233992 C85.7581815,274.264992 94.2861815,273.705992 102.552181,273.159992 L105.505181,272.964992 C113.517181,272.442992 121.667181,272.159992 129.712181,271.943992 C134.447181,272.076992 139.153181,272.232992 143.793181,272.386992 C166.329181,273.134992 189.633181,273.908992 212.862181,271.901992 C214.642181,271.747992 216.436181,271.607992 218.237181,271.466992 C226.003181,270.859992 233.973181,270.236992 241.632181,268.481992 C244.759181,268.547992 247.429181,268.428992 249.161181,267.590992 C249.450181,267.450992 250.104181,267.047992 250.410181,266.167992 C253.661181,266.147992 256.124181,265.597992 257.351181,263.826992 C257.755181,263.243992 258.115181,262.388992 258.008181,261.252992 C258.023181,260.170992 257.614181,259.390992 257.283181,258.939992 C255.025181,255.862992 248.403181,256.529992 241.233181,257.555992" id="Fill-1" transform="translate(137.409681, 265.715157) rotate(1.000000) translate(-137.409681, -265.715157) "></path>
                </g>
            </g>
        </g>
    </g>
</svg>