<?xml version="1.0" encoding="UTF-8"?>
<svg width="16px" height="162px" viewBox="0 0 16 162" version="1.1" xmlns="http://www.w3.org/2000/svg" xmlns:xlink="http://www.w3.org/1999/xlink" preserveAspectRatio="none">
    <!-- Generator: Sketch 60.1 (88133) - https://sketch.com -->
    <title>Fill 1 Copy 18</title>
    <desc>Created with Sketch.</desc>
    <g id="UI-Kit" stroke="none" stroke-width="1" fill="none" fill-rule="evenodd">
        <g id="UI-KIT" transform="translate(-867.000000, -216.000000)" fill="#020F14">
            <g id="Sticky-Nav" transform="translate(143.000000, 144.000000)">
                <g id="Group-13" transform="translate(722.346909, 62.406372)">
                    <g id="Group-23">
                        <path d="M-44.4322731,93.372499 C-42.9650119,93.2331071 -41.5,93.0577431 -40.0394591,92.8621448 C-39.9071589,92.8643931 -39.7763536,92.8666413 -39.6470433,92.8711378 C-12.747504,93.9435561 12.0105664,94.0289898 36.0406122,93.1319356 C42.1219352,92.9048617 48.3004278,92.4282314 54.2748642,91.9650906 C54.4467797,91.9493528 54.6186952,91.9358632 54.7913581,91.924622 C55.2936503,91.9695871 55.7944475,92.021297 56.2952448,92.0730069 C63.4880387,92.8261727 70.7936988,92.9003652 78.0104114,92.2910877 C79.0762873,92.2011575 82.0190317,91.2389038 84.3017702,90.3845664 C86.1173471,89.7078413 87.2945944,89.2267145 88.058497,88.8310214 L88.364955,88.8512557 C88.3918636,88.8512557 90.2904083,88.5814649 90.3061812,86.5535378 C90.3061812,86.4995796 90.3113372,85.2270666 89.7993281,85.1798532 C81.5316887,84.4289356 72.5973164,85.3125003 63.1389755,86.2477749 C52.9010354,87.257242 42.315527,88.3049294 32.5208298,87.1223466 C29.9166841,86.809839 27.3110435,86.4860901 24.703908,86.1623412 C-3.70773999,82.6438202 -32.9961569,79.0151346 -61.7150103,87.2370077 C-61.8241393,87.2212699 -61.9347632,87.2055321 -62.0483769,87.187546 C-66.3851315,86.5490413 -70.040204,86.2949883 -70.8302677,89.6831105 C-71.0238595,90.5104688 -71.0530104,91.5266806 -70.9117407,92.5428924 C-70.319006,96.8145793 -67.9211589,98.2467185 -64.472385,98.2467185 C-61.1985165,98.2467185 -56.9768704,96.9539712 -52.4569884,95.5712936 C-49.7429663,94.7394388 -46.9743797,93.8918462 -44.4322731,93.372499" id="Fill-1-Copy-18" transform="translate(9.653091, 90.246719) rotate(-90.000000) translate(-9.653091, -90.246719) "></path>
                    </g>
                </g>
            </g>
        </g>
    </g>
</svg>