<?xml version="1.0" encoding="UTF-8"?>
<svg width="162px" height="17px" viewBox="0 0 162 17" version="1.1" xmlns="http://www.w3.org/2000/svg" xmlns:xlink="http://www.w3.org/1999/xlink">
    <!-- Generator: Sketch 60.1 (88133) - https://sketch.com -->
    <title>Fill 1</title>
    <desc>Created with Sketch.</desc>
    <g id="UI-Kit" stroke="none" stroke-width="1" fill="none" fill-rule="evenodd">
        <g id="UI-KIT" transform="translate(-867.000000, -207.000000)" fill="#020F14">
            <g id="Sticky-Nav" transform="translate(143.000000, 144.000000)">
                <g id="Group-13" transform="translate(722.346909, 62.406372)">
                    <g id="Group-23">
                        <g id="Group-22" transform="translate(0.780426, 0.000000)">
                            <path d="M27.5677269,13.1257805 C29.0349881,12.9863886 30.5,12.8110246 31.9605409,12.6154263 C32.0928411,12.6176745 32.2236464,12.6199228 32.3529567,12.6244193 C59.252496,13.6968375 84.0105664,13.7822713 108.040612,12.885217 C114.121935,12.6581432 120.300428,12.1815128 126.274864,11.718372 C126.44678,11.7026342 126.618695,11.6891447 126.791358,11.6779034 C127.29365,11.7228686 127.794448,11.7745784 128.295245,11.8262883 C135.488039,12.5794542 142.793699,12.6536466 150.010411,12.0443692 C151.076287,11.9544389 154.019032,10.9921853 156.30177,10.1378479 C158.117347,9.46112277 159.294594,8.97999593 160.058497,8.58430283 L160.364955,8.60453714 C160.391864,8.60453714 162.290408,8.33474639 162.306181,6.30681925 C162.306181,6.2528611 162.311337,4.98034806 161.799328,4.93313468 C153.531689,4.18221709 144.597316,5.0657818 135.138976,6.0010564 C124.901035,7.01052346 114.315527,8.05821087 104.52083,6.87562808 C101.916684,6.56312046 99.3110435,6.23937156 96.703908,5.91562266 C68.29226,2.39710163 39.0038431,-1.23158395 10.2849897,6.99028915 C10.1758607,6.97455136 10.0652368,6.95881356 9.95162313,6.94082751 C5.61486846,6.30232274 1.95979602,6.04826978 1.1697323,9.43639195 C0.976140531,10.2637502 0.946989646,11.2799621 1.08825932,12.2961739 C1.68099397,16.5678608 4.07884109,18 7.52761496,18 C10.8014835,18 15.0231296,16.7072527 19.5430116,15.3245751 C22.2570337,14.4927203 25.0256203,13.6451276 27.5677269,13.1257805" id="Fill-1" transform="translate(81.653091, 10.000000) rotate(1.000000) translate(-81.653091, -10.000000) "></path>
                        </g>
                    </g>
                </g>
            </g>
        </g>
    </g>
</svg>