<?xml version="1.0" encoding="UTF-8"?>
<svg width="16px" height="243px" viewBox="0 0 16 243" version="1.1" xmlns="http://www.w3.org/2000/svg" xmlns:xlink="http://www.w3.org/1999/xlink" preserveAspectRatio="none">
    <!-- Generator: Sketch 60.1 (88133) - https://sketch.com -->
    <title>Fill 1 Copy 12</title>
    <desc>Created with Sketch.</desc>
    <g id="UI-Kit" stroke="none" stroke-width="1" fill="none" fill-rule="evenodd">
        <g id="UI-KIT" transform="translate(-1116.000000, -233.000000)" fill="#000000">
            <g id="Sticky-Nav" transform="translate(143.000000, 144.000000)">
                <g id="Group-13" transform="translate(722.346909, 62.406372)">
                    <path d="M360.698425,139.793282 C359.808425,139.921282 358.968425,140.040282 358.618425,140.064282 C349.681425,140.625282 340.522425,140.749282 331.664425,140.867282 L326.259425,140.943282 C324.040425,140.979282 321.820425,141.007282 319.600425,141.036282 L315.313425,141.094282 C312.724425,141.131282 310.846425,141.154282 309.411425,141.171282 C304.720425,141.229282 304.720425,141.229282 300.281425,141.472282 C298.730425,141.557282 296.632425,141.673282 293.587425,141.831282 C285.242425,142.266282 276.774425,142.925282 268.585425,143.564282 C256.809425,144.480282 244.634425,145.428282 232.672425,145.718282 C229.864425,145.789282 224.944425,145.522282 219.247425,145.218282 C207.757425,144.605282 194.733425,143.906282 189.643425,145.361282 C186.632425,146.222282 185.673425,147.769282 185.218425,149.236282 C183.473425,149.149282 151.978425,147.628282 139.990425,150.830282 C139.988425,150.829282 139.986425,150.827282 139.984425,150.825282 C138.950425,150.228282 137.625425,150.580282 137.027425,151.615282 C136.911425,151.815282 136.831425,152.026282 136.785425,152.239282 C136.243425,152.866282 136.088425,153.776282 136.462425,154.573282 C136.969425,155.656282 138.256425,156.123282 139.341425,155.616282 C139.469425,155.555282 139.608425,155.496282 139.754425,155.438282 C143.045425,156.576282 147.902425,156.970282 153.618425,156.970282 C158.722425,156.970282 164.512425,156.656282 170.477425,156.279282 C173.049425,156.117282 175.268425,155.978282 176.951425,155.921282 C178.050425,155.867282 183.684425,156.553282 185.534425,156.772282 C187.222425,156.970282 187.220425,156.970282 187.641425,156.851282 C187.897425,156.778282 188.650425,156.360282 189.534425,155.772282 C191.495425,156.764282 194.259425,156.606282 196.006425,156.505282 C196.327425,156.488282 196.594425,156.481282 196.780425,156.471282 C205.223425,156.502282 213.751425,155.943282 222.017425,155.397282 L224.970425,155.202282 C232.982425,154.680282 241.132425,154.397282 249.177425,154.181282 C253.912425,154.314282 258.618425,154.470282 263.258425,154.624282 C285.794425,155.372282 309.098425,156.146282 332.327425,154.139282 C334.107425,153.985282 335.901425,153.845282 337.702425,153.704282 C345.468425,153.097282 353.438425,152.474282 361.097425,150.719282 C364.224425,150.785282 366.894425,150.666282 368.626425,149.828282 C368.915425,149.688282 369.569425,149.285282 369.875425,148.405282 C373.126425,148.385282 375.589425,147.835282 376.816425,146.064282 C377.220425,145.481282 377.580425,144.626282 377.473425,143.490282 C377.488425,142.408282 377.079425,141.628282 376.748425,141.177282 C374.490425,138.100282 367.868425,138.767282 360.698425,139.793282" id="Fill-1-Copy-12" transform="translate(256.874925, 147.952447) rotate(-88.000000) translate(-256.874925, -147.952447) "></path>
                </g>
            </g>
        </g>
    </g>
</svg>